<svg width="32" height="32" viewBox="0 0 32 32" fill="none" xmlns="http://www.w3.org/2000/svg">
  <path d="M6.585 13.8825C9.105 18.835 13.165 22.895 18.1175 25.415L21.9675 21.565C22.4575 21.075 23.14 20.935 23.7525 21.1275C25.7125 21.775 27.8125 22.125 30 22.125C30.4641 22.125 30.9092 22.3094 31.2374 22.6376C31.5656 22.9658 31.75 23.4109 31.75 23.875V30C31.75 30.4641 31.5656 30.9092 31.2374 31.2374C30.9092 31.5656 30.4641 31.75 30 31.75C22.1098 31.75 14.5428 28.6156 8.96357 23.0364C3.38437 17.4572 0.25 9.89019 0.25 2C0.25 1.53587 0.434374 1.09075 0.762563 0.762563C1.09075 0.434374 1.53587 0.25 2 0.25H8.125C8.58913 0.25 9.03425 0.434374 9.36244 0.762563C9.69063 1.09075 9.875 1.53587 9.875 2C9.875 4.1875 10.225 6.2875 10.8725 8.2475C11.065 8.86 10.925 9.5425 10.435 10.0325L6.585 13.8825Z" fill="#405E89" />
</svg>